<mxfile host="app.diagrams.net" agent="Mozilla/5.0 (Windows NT 10.0; Win64; x64) AppleWebKit/537.36 (KHTML, like Gecko) Chrome/127.0.0.0 Safari/537.36" version="24.7.10">
  <diagram name="PÃ¡gina-1" id="YOe9fW6IBDSO4TJn0KUz">
    <mxGraphModel dx="1687" dy="908" grid="1" gridSize="10" guides="1" tooltips="1" connect="1" arrows="1" fold="1" page="1" pageScale="1" pageWidth="827" pageHeight="1169" math="0" shadow="0">
      <root>
        <mxCell id="0" />
        <mxCell id="1" parent="0" />
        <mxCell id="oFWZhzHiTJngvz0z6nkC-11" value="Produto" style="whiteSpace=wrap;html=1;align=center;" vertex="1" parent="1">
          <mxGeometry x="349" y="220" width="100" height="40" as="geometry" />
        </mxCell>
        <mxCell id="oFWZhzHiTJngvz0z6nkC-12" value="Encomenda" style="whiteSpace=wrap;html=1;align=center;" vertex="1" parent="1">
          <mxGeometry x="529" y="90" width="100" height="40" as="geometry" />
        </mxCell>
        <mxCell id="oFWZhzHiTJngvz0z6nkC-13" value="Pertence" style="shape=rhombus;perimeter=rhombusPerimeter;whiteSpace=wrap;html=1;align=center;" vertex="1" parent="1">
          <mxGeometry x="529" y="210" width="120" height="60" as="geometry" />
        </mxCell>
        <mxCell id="oFWZhzHiTJngvz0z6nkC-14" value="Faz" style="shape=rhombus;perimeter=rhombusPerimeter;whiteSpace=wrap;html=1;align=center;" vertex="1" parent="1">
          <mxGeometry x="339" y="80" width="120" height="60" as="geometry" />
        </mxCell>
        <mxCell id="oFWZhzHiTJngvz0z6nkC-17" style="edgeStyle=orthogonalEdgeStyle;rounded=0;orthogonalLoop=1;jettySize=auto;html=1;exitX=1;exitY=0.5;exitDx=0;exitDy=0;endArrow=none;endFill=0;" edge="1" parent="1" source="oFWZhzHiTJngvz0z6nkC-15" target="oFWZhzHiTJngvz0z6nkC-14">
          <mxGeometry relative="1" as="geometry" />
        </mxCell>
        <mxCell id="oFWZhzHiTJngvz0z6nkC-15" value="Cliente" style="whiteSpace=wrap;html=1;align=center;" vertex="1" parent="1">
          <mxGeometry x="140" y="90" width="100" height="40" as="geometry" />
        </mxCell>
        <mxCell id="oFWZhzHiTJngvz0z6nkC-22" style="edgeStyle=orthogonalEdgeStyle;rounded=0;orthogonalLoop=1;jettySize=auto;html=1;exitX=1;exitY=0.5;exitDx=0;exitDy=0;endArrow=none;endFill=0;" edge="1" parent="1" source="oFWZhzHiTJngvz0z6nkC-14" target="oFWZhzHiTJngvz0z6nkC-12">
          <mxGeometry relative="1" as="geometry">
            <mxPoint x="239" y="120" as="sourcePoint" />
            <mxPoint x="349" y="120" as="targetPoint" />
          </mxGeometry>
        </mxCell>
        <mxCell id="oFWZhzHiTJngvz0z6nkC-23" style="edgeStyle=orthogonalEdgeStyle;rounded=0;orthogonalLoop=1;jettySize=auto;html=1;exitX=1;exitY=0.5;exitDx=0;exitDy=0;endArrow=none;endFill=0;entryX=1;entryY=0.5;entryDx=0;entryDy=0;" edge="1" parent="1" source="oFWZhzHiTJngvz0z6nkC-12" target="oFWZhzHiTJngvz0z6nkC-13">
          <mxGeometry relative="1" as="geometry">
            <mxPoint x="249" y="130" as="sourcePoint" />
            <mxPoint x="359" y="130" as="targetPoint" />
          </mxGeometry>
        </mxCell>
        <mxCell id="oFWZhzHiTJngvz0z6nkC-24" style="edgeStyle=orthogonalEdgeStyle;rounded=0;orthogonalLoop=1;jettySize=auto;html=1;endArrow=none;endFill=0;entryX=0;entryY=0.5;entryDx=0;entryDy=0;" edge="1" parent="1" target="oFWZhzHiTJngvz0z6nkC-13">
          <mxGeometry relative="1" as="geometry">
            <mxPoint x="450" y="240" as="sourcePoint" />
            <mxPoint x="369" y="140" as="targetPoint" />
          </mxGeometry>
        </mxCell>
      </root>
    </mxGraphModel>
  </diagram>
</mxfile>
